<mxfile host="app.diagrams.net" modified="2020-12-06T13:32:46.995Z" agent="5.0 (Macintosh; Intel Mac OS X 10_15_7) AppleWebKit/605.1.15 (KHTML, like Gecko) Version/14.0 Safari/605.1.15" etag="Q7G-p6xRBShxPFZYe3M6" version="13.10.9" type="github">
  <diagram id="Aze7mLiD1O0ppQ4iMsul" name="Page-1">
    <mxGraphModel dx="946" dy="574" grid="1" gridSize="10" guides="1" tooltips="1" connect="1" arrows="1" fold="1" page="1" pageScale="1" pageWidth="827" pageHeight="1169" math="0" shadow="0">
      <root>
        <mxCell id="0" />
        <mxCell id="1" parent="0" />
        <mxCell id="K8moO8XZ3_kHeRr42Qot-3" value="" style="edgeStyle=orthogonalEdgeStyle;rounded=0;orthogonalLoop=1;jettySize=auto;html=1;" edge="1" parent="1" source="K8moO8XZ3_kHeRr42Qot-1" target="K8moO8XZ3_kHeRr42Qot-2">
          <mxGeometry relative="1" as="geometry" />
        </mxCell>
        <mxCell id="K8moO8XZ3_kHeRr42Qot-1" value="START" style="ellipse;whiteSpace=wrap;html=1;" vertex="1" parent="1">
          <mxGeometry x="300" y="20" width="120" height="80" as="geometry" />
        </mxCell>
        <mxCell id="K8moO8XZ3_kHeRr42Qot-5" value="" style="edgeStyle=orthogonalEdgeStyle;rounded=0;orthogonalLoop=1;jettySize=auto;html=1;" edge="1" parent="1" source="K8moO8XZ3_kHeRr42Qot-2" target="K8moO8XZ3_kHeRr42Qot-4">
          <mxGeometry relative="1" as="geometry" />
        </mxCell>
        <mxCell id="K8moO8XZ3_kHeRr42Qot-2" value="insert variables&lt;br&gt;s1, s2" style="shape=parallelogram;perimeter=parallelogramPerimeter;whiteSpace=wrap;html=1;fixedSize=1;" vertex="1" parent="1">
          <mxGeometry x="300" y="190" width="120" height="60" as="geometry" />
        </mxCell>
        <mxCell id="K8moO8XZ3_kHeRr42Qot-7" value="" style="edgeStyle=orthogonalEdgeStyle;rounded=0;orthogonalLoop=1;jettySize=auto;html=1;" edge="1" parent="1" source="K8moO8XZ3_kHeRr42Qot-4" target="K8moO8XZ3_kHeRr42Qot-6">
          <mxGeometry relative="1" as="geometry" />
        </mxCell>
        <mxCell id="K8moO8XZ3_kHeRr42Qot-4" value="sorted(s1)&lt;br&gt;sorted(s2)" style="whiteSpace=wrap;html=1;" vertex="1" parent="1">
          <mxGeometry x="300" y="330" width="120" height="60" as="geometry" />
        </mxCell>
        <mxCell id="K8moO8XZ3_kHeRr42Qot-9" value="" style="edgeStyle=orthogonalEdgeStyle;rounded=0;orthogonalLoop=1;jettySize=auto;html=1;" edge="1" parent="1" source="K8moO8XZ3_kHeRr42Qot-6" target="K8moO8XZ3_kHeRr42Qot-8">
          <mxGeometry relative="1" as="geometry" />
        </mxCell>
        <mxCell id="K8moO8XZ3_kHeRr42Qot-12" value="" style="edgeStyle=orthogonalEdgeStyle;rounded=0;orthogonalLoop=1;jettySize=auto;html=1;" edge="1" parent="1" source="K8moO8XZ3_kHeRr42Qot-6" target="K8moO8XZ3_kHeRr42Qot-11">
          <mxGeometry relative="1" as="geometry" />
        </mxCell>
        <mxCell id="K8moO8XZ3_kHeRr42Qot-6" value="sorted(s1) = sorted(s2)" style="rhombus;whiteSpace=wrap;html=1;" vertex="1" parent="1">
          <mxGeometry x="320" y="460" width="140" height="110" as="geometry" />
        </mxCell>
        <mxCell id="K8moO8XZ3_kHeRr42Qot-17" style="edgeStyle=orthogonalEdgeStyle;rounded=0;orthogonalLoop=1;jettySize=auto;html=1;exitX=0.5;exitY=1;exitDx=0;exitDy=0;entryX=1;entryY=0.5;entryDx=0;entryDy=0;" edge="1" parent="1" source="K8moO8XZ3_kHeRr42Qot-8" target="K8moO8XZ3_kHeRr42Qot-14">
          <mxGeometry relative="1" as="geometry" />
        </mxCell>
        <mxCell id="K8moO8XZ3_kHeRr42Qot-8" value="TRUE" style="whiteSpace=wrap;html=1;" vertex="1" parent="1">
          <mxGeometry x="550" y="485" width="120" height="60" as="geometry" />
        </mxCell>
        <mxCell id="K8moO8XZ3_kHeRr42Qot-10" value="YES" style="text;html=1;align=center;verticalAlign=middle;resizable=0;points=[];autosize=1;" vertex="1" parent="1">
          <mxGeometry x="470" y="490" width="40" height="20" as="geometry" />
        </mxCell>
        <mxCell id="K8moO8XZ3_kHeRr42Qot-15" value="" style="edgeStyle=orthogonalEdgeStyle;rounded=0;orthogonalLoop=1;jettySize=auto;html=1;" edge="1" parent="1" source="K8moO8XZ3_kHeRr42Qot-11" target="K8moO8XZ3_kHeRr42Qot-14">
          <mxGeometry relative="1" as="geometry">
            <Array as="points">
              <mxPoint x="170" y="700" />
            </Array>
          </mxGeometry>
        </mxCell>
        <mxCell id="K8moO8XZ3_kHeRr42Qot-11" value="FALSE" style="whiteSpace=wrap;html=1;" vertex="1" parent="1">
          <mxGeometry x="110" y="485" width="120" height="60" as="geometry" />
        </mxCell>
        <mxCell id="K8moO8XZ3_kHeRr42Qot-13" value="NO" style="text;html=1;align=center;verticalAlign=middle;resizable=0;points=[];autosize=1;" vertex="1" parent="1">
          <mxGeometry x="265" y="490" width="30" height="20" as="geometry" />
        </mxCell>
        <mxCell id="K8moO8XZ3_kHeRr42Qot-14" value="END" style="ellipse;whiteSpace=wrap;html=1;" vertex="1" parent="1">
          <mxGeometry x="330" y="660" width="120" height="80" as="geometry" />
        </mxCell>
      </root>
    </mxGraphModel>
  </diagram>
</mxfile>
